# Blender v2.92.0 OBJ File: 'Bullet.blend'
# www.blender.org
mtllib Bullet.mtl
o Cylinder_Cylinder.001
v 0.000000 -0.002568 -0.624609
v 0.000000 1.997432 -0.624609
v 0.286239 -0.002568 -0.552854
v 0.286239 1.997432 -0.552854
v 0.506903 -0.002568 -0.354027
v 0.506903 1.997432 -0.354027
v 0.611443 -0.002568 -0.073677
v 0.611443 1.997432 -0.073677
v 0.575908 -0.002568 0.223971
v 0.575908 1.997432 0.223971
v 0.408440 -0.002568 0.470730
v 0.408440 1.997432 0.470730
v 0.147403 -0.002568 0.610070
v 0.147403 1.997432 0.610070
v -0.147403 -0.002568 0.610070
v -0.147403 1.997432 0.610070
v -0.408440 -0.002568 0.470730
v -0.408440 1.997432 0.470730
v -0.575908 -0.002568 0.223971
v -0.575908 1.997432 0.223971
v -0.611443 -0.002568 -0.073678
v -0.611443 1.997432 -0.073678
v -0.506903 -0.002568 -0.354028
v -0.506903 1.997432 -0.354028
v -0.286238 -0.002568 -0.552855
v -0.286238 1.997432 -0.552855
v -0.119367 2.769867 -0.229484
v -0.211389 2.769867 -0.146569
v -0.254984 2.769867 -0.029657
v -0.240166 2.769867 0.094468
v -0.170328 2.769867 0.197372
v -0.061470 2.769867 0.255480
v 0.061470 2.769867 0.255480
v 0.170328 2.769867 0.197372
v 0.240166 2.769867 0.094468
v 0.254984 2.769867 -0.029657
v 0.211389 2.769867 -0.146569
v 0.119368 2.769867 -0.229484
v 0.000000 2.769867 -0.259407
v 0.000000 2.255490 -0.624609
v 0.000000 2.738130 -0.302895
v 0.139238 2.738130 -0.267990
v 0.286239 2.255490 -0.552854
v 0.246579 2.738130 -0.171273
v 0.506903 2.255490 -0.354027
v 0.297431 2.738130 -0.034899
v 0.611443 2.255490 -0.073677
v 0.280145 2.738130 0.109889
v 0.575908 2.255490 0.223971
v 0.198682 2.738130 0.229923
v 0.408440 2.255490 0.470730
v 0.071703 2.738130 0.297704
v 0.147403 2.255490 0.610070
v -0.071703 2.738130 0.297704
v -0.147403 2.255490 0.610070
v -0.198682 2.738130 0.229923
v -0.408440 2.255490 0.470730
v -0.280145 2.738130 0.109889
v -0.575908 2.255490 0.223971
v -0.297431 2.738130 -0.034899
v -0.611443 2.255490 -0.073678
v -0.246579 2.738130 -0.171273
v -0.506903 2.255490 -0.354028
v -0.139238 2.738130 -0.267991
v -0.286238 2.255490 -0.552855
vt 1.000000 0.500000
vt 1.000000 1.000000
vt 0.923077 1.000000
vt 0.923077 0.500000
vt 0.846154 1.000000
vt 0.846154 0.500000
vt 0.769231 1.000000
vt 0.769231 0.500000
vt 0.692308 1.000000
vt 0.692308 0.500000
vt 0.615385 1.000000
vt 0.615385 0.500000
vt 0.538462 1.000000
vt 0.538462 0.500000
vt 0.461538 1.000000
vt 0.461538 0.500000
vt 0.384615 1.000000
vt 0.384615 0.500000
vt 0.307692 1.000000
vt 0.307692 0.500000
vt 0.230769 1.000000
vt 0.230769 0.500000
vt 0.153846 1.000000
vt 0.153846 0.500000
vt 0.384615 1.000000
vt 0.307692 1.000000
vt 0.076923 1.000000
vt 0.076923 0.500000
vt 0.000000 1.000000
vt 0.000000 0.500000
vt 0.750000 0.490000
vt 0.861534 0.462509
vt 0.947516 0.386336
vt 0.988250 0.278929
vt 0.974404 0.164895
vt 0.909149 0.070357
vt 0.807436 0.016974
vt 0.692564 0.016974
vt 0.590851 0.070357
vt 0.525596 0.164895
vt 0.511750 0.278929
vt 0.552484 0.386336
vt 0.638467 0.462510
vt 0.076923 1.000000
vt 0.000000 1.000000
vt 0.947967 1.000000
vt 0.975110 1.000000
vt 0.975110 1.000000
vt 0.947967 1.000000
vt 0.923077 1.000000
vt 0.846154 1.000000
vt 0.538462 1.000000
vt 0.461538 1.000000
vt 0.153846 1.000000
vt 0.692308 1.000000
vt 0.615385 1.000000
vt 0.230769 1.000000
vt 0.769231 1.000000
vt 0.289356 0.324987
vt 0.250000 0.334688
vt 0.210644 0.324987
vt 0.180303 0.298108
vt 0.165930 0.260208
vt 0.170816 0.219969
vt 0.193842 0.186610
vt 0.229733 0.167773
vt 0.270267 0.167773
vt 0.306158 0.186610
vt 0.329184 0.219969
vt 0.334070 0.260208
vt 0.319697 0.298108
vt 1.000000 1.000000
vt 0.898187 1.000000
vt 0.871044 1.000000
vt 0.821264 1.000000
vt 0.794121 1.000000
vt 0.744341 1.000000
vt 0.717197 1.000000
vt 0.667418 1.000000
vt 0.640274 1.000000
vt 0.590495 1.000000
vt 0.563351 1.000000
vt 0.513572 1.000000
vt 0.486428 1.000000
vt 0.436649 1.000000
vt 0.409505 1.000000
vt 0.359726 1.000000
vt 0.332582 1.000000
vt 0.282803 1.000000
vt 0.255659 1.000000
vt 0.205880 1.000000
vt 0.178736 1.000000
vt 0.128956 1.000000
vt 0.101813 1.000000
vt 0.052033 1.000000
vt 0.024890 1.000000
vt 0.590495 1.000000
vt 0.563351 1.000000
vt 0.205880 1.000000
vt 0.178736 1.000000
vt 0.744341 1.000000
vt 0.717197 1.000000
vt 0.359726 1.000000
vt 0.332582 1.000000
vt 0.898187 1.000000
vt 0.871044 1.000000
vt 0.513572 1.000000
vt 0.486428 1.000000
vt 0.128956 1.000000
vt 0.101813 1.000000
vt 0.667418 1.000000
vt 0.640274 1.000000
vt 0.282803 1.000000
vt 0.255659 1.000000
vt 0.052033 1.000000
vt 0.024890 1.000000
vt 0.821264 1.000000
vt 0.794121 1.000000
vt 0.436649 1.000000
vt 0.409505 1.000000
vn 0.2432 0.0000 -0.9700
vn 0.6694 0.0000 -0.7429
vn 0.9370 0.0000 -0.3494
vn 0.9929 0.0000 0.1185
vn 0.8274 0.0000 0.5616
vn 0.4709 0.0000 0.8822
vn 0.0000 0.0000 1.0000
vn -0.4709 0.0000 0.8822
vn -0.8274 0.0000 0.5616
vn -0.9929 0.0000 0.1185
vn -0.9370 0.0000 -0.3494
vn -0.6694 0.0000 -0.7429
vn -0.2432 0.0000 -0.9700
vn 0.0000 -1.0000 -0.0000
vn 0.1462 0.7991 -0.5832
vn 0.0000 1.0000 0.0000
vn 0.2042 0.5430 -0.8146
vn 0.5632 0.5405 -0.6251
vn 0.7900 0.5377 -0.2946
vn 0.8377 0.5370 0.1000
vn 0.6970 0.5389 0.4730
vn 0.3958 0.5419 0.7414
vn 0.0000 0.5433 0.8395
vn -0.3958 0.5419 0.7414
vn -0.6970 0.5389 0.4730
vn -0.8377 0.5370 0.1000
vn -0.7900 0.5377 -0.2946
vn -0.5632 0.5405 -0.6251
vn -0.2042 0.5430 -0.8146
vn 0.2836 0.7983 0.5313
vn -0.5683 0.7951 -0.2119
vn 0.6030 0.7945 0.0720
vn -0.5008 0.7960 0.3399
vn 0.4041 0.7972 -0.4485
vn 0.0000 0.7994 0.6008
vn -0.4041 0.7972 -0.4485
vn 0.5008 0.7960 0.3399
vn -0.6030 0.7945 0.0720
vn -0.1462 0.7991 -0.5832
vn 0.5683 0.7951 -0.2119
vn -0.2836 0.7983 0.5313
usemtl None
s off
f 1/1/1 2/2/1 4/3/1 3/4/1
f 3/4/2 4/3/2 6/5/2 5/6/2
f 5/6/3 6/5/3 8/7/3 7/8/3
f 7/8/4 8/7/4 10/9/4 9/10/4
f 9/10/5 10/9/5 12/11/5 11/12/5
f 11/12/6 12/11/6 14/13/6 13/14/6
f 13/14/7 14/13/7 16/15/7 15/16/7
f 15/16/8 16/15/8 18/17/8 17/18/8
f 17/18/9 18/17/9 20/19/9 19/20/9
f 19/20/10 20/19/10 22/21/10 21/22/10
f 21/22/11 22/21/11 24/23/11 23/24/11
f 20/19/9 18/17/9 57/25/9 59/26/9
f 23/24/12 24/23/12 26/27/12 25/28/12
f 25/28/13 26/27/13 2/29/13 1/30/13
f 1/31/14 3/32/14 5/33/14 7/34/14 9/35/14 11/36/14 13/37/14 15/38/14 17/39/14 19/40/14 21/41/14 23/42/14 25/43/14
f 2/29/13 26/27/13 65/44/13 40/45/13
f 42/46/15 41/47/15 39/48/15 38/49/15
f 6/5/2 4/3/2 43/50/2 45/51/2
f 16/15/7 14/13/7 53/52/7 55/53/7
f 26/27/12 24/23/12 63/54/12 65/44/12
f 12/11/5 10/9/5 49/55/5 51/56/5
f 22/21/10 20/19/10 59/26/10 61/57/10
f 8/7/3 6/5/3 45/51/3 47/58/3
f 18/17/8 16/15/8 55/53/8 57/25/8
f 38/59/16 39/60/16 27/61/16 28/62/16 29/63/16 30/64/16 31/65/16 32/66/16 33/67/16 34/68/16 35/69/16 36/70/16 37/71/16
f 14/13/6 12/11/6 51/56/6 53/52/6
f 24/23/11 22/21/11 61/57/11 63/54/11
f 10/9/4 8/7/4 47/58/4 49/55/4
f 43/50/17 40/72/17 41/47/17 42/46/17
f 45/51/18 43/50/18 42/73/18 44/74/18
f 47/58/19 45/51/19 44/75/19 46/76/19
f 49/55/20 47/58/20 46/77/20 48/78/20
f 51/56/21 49/55/21 48/79/21 50/80/21
f 53/52/22 51/56/22 50/81/22 52/82/22
f 55/53/23 53/52/23 52/83/23 54/84/23
f 57/25/24 55/53/24 54/85/24 56/86/24
f 59/26/25 57/25/25 56/87/25 58/88/25
f 61/57/26 59/26/26 58/89/26 60/90/26
f 63/54/27 61/57/27 60/91/27 62/92/27
f 65/44/28 63/54/28 62/93/28 64/94/28
f 40/45/29 65/44/29 64/95/29 41/96/29
f 4/3/1 2/2/1 40/72/1 43/50/1
f 52/82/30 50/81/30 34/97/30 33/98/30
f 62/92/31 60/91/31 29/99/31 28/100/31
f 48/78/32 46/77/32 36/101/32 35/102/32
f 58/88/33 56/87/33 31/103/33 30/104/33
f 44/74/34 42/73/34 38/105/34 37/106/34
f 54/84/35 52/83/35 33/107/35 32/108/35
f 64/94/36 62/93/36 28/109/36 27/110/36
f 50/80/37 48/79/37 35/111/37 34/112/37
f 60/90/38 58/89/38 30/113/38 29/114/38
f 41/96/39 64/95/39 27/115/39 39/116/39
f 46/76/40 44/75/40 37/117/40 36/118/40
f 56/86/41 54/85/41 32/119/41 31/120/41
